# xmcd
#
# Track frame offsets:
#	150
#	13265
#	27563
#	49428
#	65666
#	81991
#	100261
#	116316
#	135918
#	152242
#	165522
#	181695
#
# Disc length: 2648 seconds
#
# Revision: 1
# Processed by: cddbd v1.5.1PL0 Copyright (c) Steve Scherf et al.
# Submitted via: audiograbber 1.82.02
#
DISCID=9a0a560c
DTITLE=Allan Gumm - Let It Flow
DYEAR=1900
DGENRE=Country
TTITLE0=Momma Tried
TTITLE1=It Doesn't Take Much
TTITLE2=Red Moon Over Lugarno
TTITLE3=Sooner Or Later
TTITLE4=Down The Road
TTITLE5=My Mountain Girl
TTITLE6=Devil Women
TTITLE7=Teardrops In The Rain
TTITLE8=Not Counting You
TTITLE9=Man Across The Room
TTITLE10=Blue Water Lady
TTITLE11=If Tomorrow Never Comes
EXTD=
EXTT0=
EXTT1=
EXTT2=
EXTT3=
EXTT4=
EXTT5=
EXTT6=
EXTT7=
EXTT8=
EXTT9=
EXTT10=
EXTT11=
PLAYORDER=
